<svg width="512" height="512" viewBox="0 0 512 512" fill="none" xmlns="http://www.w3.org/2000/svg">
<rect width="512" height="512" rx="30" fill="black"/>
<g clip-path="url(#paint0_angular_76_2_clip_path)" data-figma-skip-parse="true"><g transform="matrix(0.1 -0.118 0.178768 0.15168 188 256)"><foreignObject x="-752.763" y="-752.763" width="1505.53" height="1505.53"><div xmlns="http://www.w3.org/1999/xhtml" style="background:conic-gradient(from 90deg,rgba(230, 185, 103, 1) 0deg,rgba(196, 142, 33, 1) 360deg);height:100%;width:100%;opacity:1"></div></foreignObject></g></g><rect x="88" y="190" width="200" height="132" data-figma-gradient-fill="{&#34;type&#34;:&#34;GRADIENT_ANGULAR&#34;,&#34;stops&#34;:[{&#34;color&#34;:{&#34;r&#34;:0.90384614467620850,&#34;g&#34;:0.72876077890396118,&#34;b&#34;:0.40412351489067078,&#34;a&#34;:1.0},&#34;position&#34;:0.0},{&#34;color&#34;:{&#34;r&#34;:0.76923078298568726,&#34;g&#34;:0.56067520380020142,&#34;b&#34;:0.13313609361648560,&#34;a&#34;:1.0},&#34;position&#34;:1.0}],&#34;stopsVar&#34;:[{&#34;color&#34;:{&#34;r&#34;:0.90384614467620850,&#34;g&#34;:0.72876077890396118,&#34;b&#34;:0.40412351489067078,&#34;a&#34;:1.0},&#34;position&#34;:0.0},{&#34;color&#34;:{&#34;r&#34;:0.76923078298568726,&#34;g&#34;:0.56067520380020142,&#34;b&#34;:0.13313609361648560,&#34;a&#34;:1.0},&#34;position&#34;:1.0}],&#34;transform&#34;:{&#34;m00&#34;:199.99996948242188,&#34;m01&#34;:357.53552246093750,&#34;m02&#34;:-90.767730712890625,&#34;m10&#34;:-236.0,&#34;m11&#34;:303.36019897460938,&#34;m12&#34;:222.31990051269531},&#34;opacity&#34;:1.0,&#34;blendMode&#34;:&#34;NORMAL&#34;,&#34;visible&#34;:true}"/>
<path d="M387.432 300H368.872L363.752 284.256H333.16L328.168 300H309.608L338.792 216.544C340.072 213.643 341.48 211.637 343.016 210.528C344.637 209.419 346.6 208.864 348.904 208.864C351.208 208.864 353.042 209.376 354.408 210.4C355.858 211.424 357.138 213.472 358.248 216.544L387.432 300ZM359.656 269.28L348.904 233.184L337.64 269.28H359.656Z" fill="url(#paint1_linear_76_2)"/>
<path d="M183.39 245.6L167.006 280.16C164.616 284.768 161.63 287.072 158.046 287.072C154.547 287.072 151.603 284.64 149.214 279.776L132.574 245.6V300H114.782V208.864H132.318L158.046 261.472L183.646 208.864H201.182V300H183.39V245.6ZM276.004 300H248.868C238.628 300 231.204 298.037 226.596 294.112C222.073 290.101 219.812 283.616 219.812 274.656V208.864H237.604V274.656C237.604 278.24 238.414 280.715 240.036 282.08C241.657 283.445 244.601 284.128 248.868 284.128H276.004V300Z" fill="#111423"/>
<defs>
<clipPath id="paint0_angular_76_2_clip_path"><rect x="88" y="190" width="200" height="132"/></clipPath><linearGradient id="paint1_linear_76_2" x1="391.422" y1="278" x2="383.15" y2="223.274" gradientUnits="userSpaceOnUse">
<stop stop-color="#DFAF56"/>
<stop offset="1" stop-color="#F9D888"/>
</linearGradient>
</defs>
</svg>
